<?xml version="1.0" standalone="no"?>
<!DOCTYPE svg PUBLIC "-//W3C//DTD SVG 20010904//EN"
 "http://www.w3.org/TR/2001/REC-SVG-20010904/DTD/svg10.dtd">
<svg version="1.0" xmlns="http://www.w3.org/2000/svg"
 width="948.000000pt" height="1432.000000pt" viewBox="0 0 948.000000 1432.000000"
 preserveAspectRatio="xMidYMid meet">

<g transform="translate(0.000000,1432.000000) scale(0.100000,-0.100000)"
fill="#000000" stroke="none">
<path d="M260 13694 c0 -10 4391 -13486 4399 -13501 4 -7 996 3024 2205 6735
1209 3711 2201 6753 2203 6760 4 9 -880 12 -4401 12 -2423 0 -4406 -3 -4406
-6z m8480 -231 c0 -5 -916 -672 -2035 -1483 -1119 -811 -2034 -1477 -2034
-1480 0 -3 566 -415 1257 -916 691 -501 1256 -915 1255 -920 0 -5 -550 -1694
-1221 -3754 -671 -2060 -1237 -3796 -1257 -3859 -20 -62 -40 -109 -44 -105 -5
5 -574 1746 -1265 3868 -1029 3158 -1255 3861 -1244 3871 7 7 567 412 1243
900 677 488 1237 895 1247 904 15 15 -132 123 -2019 1491 -1119 811 -2037
1478 -2039 1483 -3 4 1831 7 4075 7 2245 0 4081 -3 4081 -7z"/>
<path d="M5267 13130 c-121 -31 -187 -107 -187 -218 0 -113 70 -178 229 -212
122 -26 157 -56 135 -115 -10 -25 -58 -45 -109 -45 -48 0 -95 19 -132 53 l-22
20 -57 -43 -56 -42 42 -44 c62 -62 127 -89 220 -88 186 1 303 130 260 286 -23
83 -85 126 -231 159 -92 22 -129 43 -129 77 0 49 71 90 136 77 19 -3 49 -19
67 -35 l33 -29 57 37 c31 20 57 42 57 48 0 17 -61 70 -108 93 -49 25 -148 35
-205 21z"/>
<path d="M6342 13124 c-65 -20 -136 -82 -153 -131 -27 -82 -2 -186 57 -232 34
-27 117 -57 180 -66 28 -3 65 -15 83 -26 25 -15 31 -25 31 -53 0 -48 -37 -76
-101 -76 -59 0 -96 13 -131 47 l-27 26 -38 -27 c-81 -57 -77 -51 -57 -81 33
-51 123 -100 202 -111 161 -21 305 85 305 226 0 117 -57 174 -218 216 -122 32
-145 45 -145 84 0 36 30 66 75 74 46 9 83 -1 126 -34 l36 -28 56 36 c31 21 57
40 57 44 0 3 -11 20 -25 37 -62 72 -206 107 -313 75z"/>
<path d="M2650 12867 c0 -144 4 -277 10 -296 22 -78 87 -137 179 -165 143 -42
299 13 355 126 l26 52 0 273 0 273 -75 0 -75 0 0 -260 0 -260 -28 -31 c-24
-27 -37 -33 -85 -37 -65 -5 -109 9 -137 46 -19 23 -20 41 -20 283 l0 259 -75
0 -75 0 0 -263z"/>
<path d="M3830 12765 l0 -366 73 3 72 3 0 145 c0 80 -4 176 -8 213 -8 68 3 87
18 30 3 -15 32 -87 63 -160 l57 -134 58 3 58 3 49 113 c27 62 56 135 65 162
21 63 34 65 24 3 -4 -27 -8 -123 -8 -215 l-1 -168 75 0 75 0 0 365 0 366 -81
-3 -81 -3 -86 -202 c-48 -112 -89 -203 -92 -203 -3 0 -44 91 -91 203 l-85 202
-77 3 -77 3 0 -366z"/>
<path d="M4632 9908 c-8 -8 -12 -67 -12 -200 l0 -188 25 -12 c21 -9 28 -8 45
7 19 17 20 31 20 200 0 190 -3 205 -45 205 -12 0 -26 -5 -33 -12z"/>
<path d="M3986 9734 c-9 -8 -16 -21 -16 -28 0 -6 42 -84 93 -171 72 -125 97
-161 115 -163 29 -4 52 14 52 41 0 19 -147 283 -178 320 -19 21 -46 22 -66 1z"/>
<path d="M5273 9738 c-6 -7 -47 -77 -93 -156 -62 -109 -81 -149 -76 -167 6
-25 34 -39 59 -29 19 7 187 296 187 322 0 37 -55 58 -77 30z"/>
<path d="M5770 9282 c-28 -9 -295 -165 -302 -176 -16 -23 -8 -56 16 -67 20
-10 42 0 174 75 82 48 155 93 162 101 24 28 -14 79 -50 67z"/>
<path d="M3510 9266 c-30 -37 -9 -57 155 -152 88 -51 168 -93 177 -94 22 0 50
42 42 63 -8 21 -314 197 -341 197 -12 0 -26 -7 -33 -14z"/>
<path d="M4196 8873 c-48 -148 -101 -311 -118 -363 l-31 -95 297 -901 c163
-495 296 -911 296 -924 0 -13 -110 -359 -244 -769 -135 -410 -263 -803 -286
-874 -22 -70 -44 -127 -48 -127 -4 1 -41 48 -82 106 l-75 106 -3 -191 c-1
-105 -1 -277 0 -381 l3 -191 221 303 c122 167 218 304 215 306 -4 1 -59 -16
-124 -37 -64 -22 -117 -36 -117 -32 0 13 538 1652 544 1659 3 3 6 -475 6
-1062 0 -901 -2 -1067 -14 -1063 -7 3 -55 36 -105 72 -51 37 -94 66 -96 63 -3
-3 199 -642 221 -698 4 -10 11 1 20 30 8 25 61 188 118 362 57 175 99 315 92
311 -6 -4 -54 -38 -106 -75 l-95 -68 -3 535 c-1 294 -1 775 0 1069 l3 534 273
-830 c150 -456 271 -833 267 -836 -3 -3 -56 10 -117 31 -62 20 -114 35 -116
33 -3 -3 407 -574 434 -605 2 -2 4 168 4 380 l0 384 -77 -107 c-43 -59 -81
-108 -84 -108 -3 0 -136 399 -297 886 l-291 885 299 913 299 912 -118 359
-119 360 -379 3 -380 2 -87 -267z m619 186 l-150 -49 -150 47 c-82 25 -152 48
-154 50 -2 1 133 3 300 2 l304 -1 -150 -49z m-242 -44 c31 -10 57 -21 57 -24
-1 -5 -273 -204 -306 -224 -12 -7 -14 22 -14 162 l0 169 103 -32 c56 -18 128
-41 160 -51z m435 -169 l-3 -84 -159 116 -160 116 160 51 159 51 3 -83 c1 -46
1 -121 0 -167z m-718 60 l0 -163 -97 -136 c-54 -74 -99 -134 -101 -133 -1 2
41 134 93 294 52 161 95 294 95 297 0 3 2 5 5 5 3 0 5 -74 5 -164z m854 -150
c52 -159 89 -283 82 -275 -8 8 -52 67 -100 133 l-86 118 1 167 c0 91 2 162 4
156 3 -5 47 -140 99 -299z m-530 90 l-38 -116 -130 0 c-71 0 -127 2 -125 4 19
19 324 235 327 232 2 -3 -13 -57 -34 -120z m229 7 l160 -118 -123 -3 c-68 -1
-127 1 -131 5 -9 10 -79 233 -72 233 3 0 77 -53 166 -117z m162 -145 c-2 -7
-29 -92 -61 -188 -31 -96 -58 -177 -60 -179 -7 -8 -12 3 -47 116 l-35 113 101
75 c56 41 103 74 104 75 1 0 0 -6 -2 -12z m-579 -65 c51 -38 94 -73 94 -78 0
-6 -17 -62 -39 -125 l-38 -115 -62 188 c-33 103 -61 190 -61 192 0 11 17 1
106 -62z m-69 -125 c32 -101 56 -184 52 -186 -9 -4 -291 88 -303 98 -8 8 171
268 185 269 3 1 33 -81 66 -181z m773 54 c50 -68 91 -127 93 -133 2 -10 -301
-114 -310 -106 -7 7 111 367 119 364 4 -1 48 -57 98 -125z m-366 -174 l100
-73 -102 -3 c-56 -1 -147 -1 -202 0 l-100 3 97 72 c54 39 100 72 102 72 2 1
49 -32 105 -71z m-432 -68 l96 -30 89 -123 c112 -152 115 -158 72 -126 -18 14
-132 96 -251 183 -120 86 -218 159 -218 161 0 2 26 -5 58 -16 31 -11 100 -33
154 -49z m873 61 c-12 -10 -474 -343 -494 -356 -16 -9 10 28 116 170 l68 90
150 52 c156 54 176 59 160 44z m-835 -209 c140 -101 261 -189 268 -196 9 -9
12 -147 10 -646 l-3 -635 -164 495 c-312 943 -388 1179 -377 1173 6 -4 126
-90 266 -191z m585 -652 l-274 -835 0 645 -1 645 273 196 c149 109 273 194
274 190 2 -3 -121 -382 -272 -841z m-95 763 c-1 -5 -45 -68 -99 -141 l-99
-133 -94 128 c-52 70 -97 134 -102 141 -6 9 36 12 193 12 111 0 201 -3 201 -7z"/>
<path d="M3342 8628 c-7 -7 -12 -21 -12 -33 0 -42 15 -45 215 -45 200 0 215 3
215 45 0 42 -15 45 -215 45 -135 0 -195 -4 -203 -12z"/>
<path d="M5602 8628 c-17 -17 -15 -44 4 -62 13 -13 45 -16 193 -16 186 0 201
3 201 45 0 42 -15 45 -205 45 -127 0 -185 -4 -193 -12z"/>
</g>
</svg>
